<?xml version="1.0" standalone="no"?>
<!DOCTYPE svg PUBLIC "-//W3C//DTD SVG 20010904//EN"
 "http://www.w3.org/TR/2001/REC-SVG-20010904/DTD/svg10.dtd">
<svg version="1.0" xmlns="http://www.w3.org/2000/svg"
 width="260.000000pt" height="260.000000pt" viewBox="0 0 260.000000 260.000000"
 preserveAspectRatio="xMidYMid meet">
<metadata>
Created by potrace 1.11, written by Peter Selinger 2001-2013
</metadata>
<g transform="translate(0.000000,260.000000) scale(0.100000,-0.100000)"
fill="#000000" stroke="none">
<path d="M1183 2463 c3 -10 19 -56 35 -103 74 -206 97 -352 96 -600 -2 -498
-213 -884 -669 -1225 -104 -78 -297 -205 -311 -205 -3 0 -18 -8 -32 -19 -25
-17 -217 -121 -269 -146 -23 -10 -40 -35 -24 -35 4 0 104 39 222 86 232 93
476 184 579 216 125 39 266 122 405 239 162 136 271 284 356 484 16 38 69 196
73 218 2 12 9 40 14 62 11 39 13 52 26 140 17 111 22 266 11 345 -3 19 -8 53
-10 75 -10 76 -64 242 -88 273 -19 24 26 0 98 -53 242 -179 407 -418 475 -690
24 -97 32 -302 17 -435 -10 -87 -44 -231 -74 -310 -31 -81 -88 -197 -108 -217
-8 -8 -15 -18 -15 -21 0 -4 -11 -19 -24 -33 l-24 -26 -69 15 c-83 18 -557 23
-586 6 -15 -9 -12 -11 20 -11 51 0 204 -12 223 -18 8 -2 33 -6 56 -9 110 -12
310 -70 418 -120 130 -60 201 -117 235 -189 l18 -38 25 33 c129 174 244 448
273 653 3 23 8 52 11 65 9 45 11 285 3 348 -8 59 -11 77 -24 146 -19 98 -98
271 -171 374 -97 136 -261 278 -446 390 -92 56 -277 146 -503 247 -82 37 -168
75 -191 86 -50 23 -58 24 -51 2z"/>
</g>
</svg>
